<svg class="border shadow-md" viewBox="0 0 583.44 583.44" style="width: 583.44px; height: 583.44px;" xmlns="http://www.w3.org/2000/svg" preserveAspectRatio="none"><rect class="bg" id="bg" x="0" y="0" width="583.44" height="583.44" fill="#d9d7d7"/><g transform="rotate(0 291.72 291.72)"><path id="-1" d="M -391.72 -28.34 S -205.86 -57.52&#10;            0.00 -28.34 66.72 -57.52&#10;            391.72 -28.34 577.58 -80.34&#10;            783.44 -28.34 969.30 -79.34&#10;            1175.16 -28.34 h 110 V 783.44 H -391.72 Z" fill="#000000"/><path id="0" d="M -391.72 30.00 S -344.00 0.83&#10;            0.00 30.00 185.86 0.83&#10;            391.72 30.00 577.58 0.83&#10;            783.44 30.00 821.16 -3.00&#10;            1175.16 30.00 h 110 V 783.44 H -391.72 Z" fill="#03010a"/><path id="1" d="M -391.72 88.34 S -205.86 59.17&#10;            0.00 88.34 185.86 59.17&#10;            391.72 88.34 433.44 59.17&#10;            783.44 88.34 898.16 44.34&#10;            1175.16 88.34 h 110 V 783.44 H -391.72 Z" fill="#060214"/><path id="2" d="M -391.72 146.69 S -205.86 117.52&#10;            0.00 146.69 185.86 111.69&#10;            391.72 146.69 577.58 101.69&#10;            783.44 146.69 969.30 115.69&#10;            1175.16 146.69 h 110 V 783.44 H -391.72 Z" fill="#09031e"/><path id="3" d="M -391.72 205.03 S -205.86 175.86&#10;            0.00 205.03 63.72 175.86&#10;            391.72 205.03 577.58 152.03&#10;            783.44 205.03 969.30 165.03&#10;            1175.16 205.03 h 110 V 783.44 H -391.72 Z" fill="#0c0428"/><path id="4" d="M -391.72 263.38 S -299.00 216.38&#10;            0.00 263.38 185.86 207.38&#10;            391.72 263.38 487.44 234.20&#10;            783.44 263.38 802.16 234.20&#10;            1175.16 263.38 h 110 V 783.44 H -391.72 Z" fill="#0f0532"/><path id="5" d="M -391.72 321.72 S -205.86 292.55&#10;            0.00 321.72 157.72 292.55&#10;            391.72 321.72 577.58 273.72&#10;            783.44 321.72 969.30 292.55&#10;            1175.16 321.72 h 110 V 783.44 H -391.72 Z" fill="#12063c"/><path id="6" d="M -391.72 380.06 S -205.86 335.06&#10;            0.00 380.06 185.86 343.06&#10;            391.72 380.06 512.44 350.89&#10;            783.44 380.06 943.16 350.89&#10;            1175.16 380.06 h 110 V 783.44 H -391.72 Z" fill="#150746"/><path id="7" d="M -391.72 438.41 S -394.00 409.24&#10;            0.00 438.41 185.86 395.41&#10;            391.72 438.41 577.58 409.24&#10;            783.44 438.41 916.16 388.41&#10;            1175.16 438.41 h 110 V 783.44 H -391.72 Z" fill="#180850"/><path id="8" d="M -391.72 496.75 S -321.00 444.75&#10;            0.00 496.75 185.86 467.58&#10;            391.72 496.75 577.58 447.75&#10;            783.44 496.75 969.30 467.58&#10;            1175.16 496.75 h 110 V 783.44 H -391.72 Z" fill="#1b095a"/><path id="9" d="M -391.72 555.10 S -271.00 525.92&#10;            0.00 555.10 185.86 500.10&#10;            391.72 555.10 577.58 501.10&#10;            783.44 555.10 969.30 525.92&#10;            1175.16 555.10 h 110 V 783.44 H -391.72 Z" fill="#1e0a64"/></g></svg>